<svg xmlns="http://www.w3.org/2000/svg" xmlns:xlink="http://www.w3.org/1999/xlink" width="500" zoomAndPan="magnify" viewBox="0 0 375 374.999991" height="500" preserveAspectRatio="xMidYMid meet" version="1.2"><defs><clipPath id="37665a229d"><path d="M 17.578125 36 L 321 36 L 321 374 L 17.578125 374 Z M 17.578125 36 "/></clipPath></defs><g id="a0cf381f37"><path style=" stroke:none;fill-rule:nonzero;fill:#8c52ff;fill-opacity:1;" d="M 99.023438 117.636719 C 99.023438 118.402344 98.949219 119.15625 98.800781 119.90625 C 98.652344 120.65625 98.433594 121.382812 98.140625 122.089844 C 97.847656 122.796875 97.488281 123.464844 97.0625 124.101562 C 96.640625 124.734375 96.15625 125.324219 95.617188 125.863281 C 95.078125 126.402344 94.488281 126.886719 93.855469 127.3125 C 93.21875 127.734375 92.546875 128.09375 91.84375 128.386719 C 91.136719 128.679688 90.410156 128.898438 89.660156 129.046875 C 88.910156 129.199219 88.152344 129.273438 87.390625 129.273438 C 86.625 129.273438 85.867188 129.199219 85.121094 129.046875 C 84.371094 128.898438 83.644531 128.679688 82.9375 128.386719 C 82.230469 128.09375 81.5625 127.734375 80.925781 127.3125 C 80.289062 126.886719 79.703125 126.402344 79.164062 125.863281 C 78.621094 125.324219 78.140625 124.734375 77.714844 124.101562 C 77.289062 123.464844 76.933594 122.796875 76.640625 122.089844 C 76.347656 121.382812 76.128906 120.65625 75.976562 119.90625 C 75.828125 119.15625 75.753906 118.402344 75.753906 117.636719 C 75.753906 116.871094 75.828125 116.117188 75.976562 115.367188 C 76.128906 114.617188 76.347656 113.890625 76.640625 113.183594 C 76.933594 112.476562 77.289062 111.808594 77.714844 111.171875 C 78.140625 110.539062 78.621094 109.949219 79.164062 109.410156 C 79.703125 108.867188 80.289062 108.386719 80.925781 107.960938 C 81.5625 107.539062 82.230469 107.179688 82.9375 106.886719 C 83.644531 106.59375 84.371094 106.375 85.121094 106.226562 C 85.867188 106.074219 86.625 106 87.390625 106 C 88.152344 106 88.910156 106.074219 89.660156 106.226562 C 90.410156 106.375 91.136719 106.59375 91.84375 106.886719 C 92.546875 107.179688 93.21875 107.539062 93.855469 107.960938 C 94.488281 108.386719 95.078125 108.867188 95.617188 109.410156 C 96.15625 109.949219 96.640625 110.539062 97.0625 111.171875 C 97.488281 111.808594 97.847656 112.476562 98.140625 113.183594 C 98.433594 113.890625 98.652344 114.617188 98.800781 115.367188 C 98.949219 116.117188 99.023438 116.871094 99.023438 117.636719 Z M 99.023438 117.636719 "/><path style=" stroke:none;fill-rule:nonzero;fill:#8c52ff;fill-opacity:1;" d="M 256.101562 123.453125 L 128.113281 123.453125 C 124.621094 123.453125 122.296875 121.128906 122.296875 117.636719 C 122.296875 114.144531 124.621094 111.820312 128.113281 111.820312 L 256.101562 111.820312 C 259.59375 111.820312 261.917969 114.144531 261.917969 117.636719 C 261.917969 121.128906 259.59375 123.453125 256.101562 123.453125 Z M 256.101562 123.453125 "/><path style=" stroke:none;fill-rule:nonzero;fill:#8c52ff;fill-opacity:1;" d="M 99.023438 164.175781 C 99.023438 164.941406 98.949219 165.699219 98.800781 166.449219 C 98.652344 167.195312 98.433594 167.925781 98.140625 168.628906 C 97.847656 169.335938 97.488281 170.007812 97.0625 170.640625 C 96.640625 171.277344 96.15625 171.863281 95.617188 172.40625 C 95.078125 172.945312 94.488281 173.425781 93.855469 173.851562 C 93.21875 174.277344 92.546875 174.636719 91.84375 174.925781 C 91.136719 175.21875 90.410156 175.441406 89.660156 175.589844 C 88.910156 175.738281 88.152344 175.8125 87.390625 175.8125 C 86.625 175.8125 85.867188 175.738281 85.121094 175.589844 C 84.371094 175.441406 83.644531 175.21875 82.9375 174.925781 C 82.230469 174.636719 81.5625 174.277344 80.925781 173.851562 C 80.289062 173.425781 79.703125 172.945312 79.164062 172.40625 C 78.621094 171.863281 78.140625 171.277344 77.714844 170.640625 C 77.289062 170.007812 76.933594 169.335938 76.640625 168.628906 C 76.347656 167.925781 76.128906 167.195312 75.976562 166.449219 C 75.828125 165.699219 75.753906 164.941406 75.753906 164.175781 C 75.753906 163.414062 75.828125 162.65625 75.976562 161.90625 C 76.128906 161.160156 76.347656 160.429688 76.640625 159.726562 C 76.933594 159.019531 77.289062 158.347656 77.714844 157.714844 C 78.140625 157.078125 78.621094 156.492188 79.164062 155.949219 C 79.703125 155.410156 80.289062 154.929688 80.925781 154.503906 C 81.5625 154.078125 82.230469 153.71875 82.9375 153.429688 C 83.644531 153.136719 84.371094 152.914062 85.121094 152.765625 C 85.867188 152.617188 86.625 152.542969 87.390625 152.542969 C 88.152344 152.542969 88.910156 152.617188 89.660156 152.765625 C 90.410156 152.914062 91.136719 153.136719 91.84375 153.429688 C 92.546875 153.71875 93.21875 154.078125 93.855469 154.503906 C 94.488281 154.929688 95.078125 155.410156 95.617188 155.949219 C 96.15625 156.492188 96.640625 157.078125 97.0625 157.714844 C 97.488281 158.347656 97.847656 159.019531 98.140625 159.726562 C 98.433594 160.429688 98.652344 161.160156 98.800781 161.90625 C 98.949219 162.65625 99.023438 163.414062 99.023438 164.175781 Z M 99.023438 164.175781 "/><path style=" stroke:none;fill-rule:nonzero;fill:#8c52ff;fill-opacity:1;" d="M 256.101562 169.996094 L 128.113281 169.996094 C 124.621094 169.996094 122.296875 167.667969 122.296875 164.175781 C 122.296875 160.6875 124.621094 158.359375 128.113281 158.359375 L 256.101562 158.359375 C 259.59375 158.359375 261.917969 160.6875 261.917969 164.175781 C 261.917969 167.667969 259.59375 169.996094 256.101562 169.996094 Z M 256.101562 169.996094 "/><path style=" stroke:none;fill-rule:nonzero;fill:#8c52ff;fill-opacity:1;" d="M 99.023438 210.71875 C 99.023438 211.484375 98.949219 212.238281 98.800781 212.988281 C 98.652344 213.738281 98.433594 214.464844 98.140625 215.171875 C 97.847656 215.878906 97.488281 216.546875 97.0625 217.183594 C 96.640625 217.816406 96.15625 218.40625 95.617188 218.945312 C 95.078125 219.488281 94.488281 219.96875 93.855469 220.394531 C 93.21875 220.816406 92.546875 221.175781 91.84375 221.46875 C 91.136719 221.761719 90.410156 221.980469 89.660156 222.128906 C 88.910156 222.28125 88.152344 222.355469 87.390625 222.355469 C 86.625 222.355469 85.867188 222.28125 85.121094 222.128906 C 84.371094 221.980469 83.644531 221.761719 82.9375 221.46875 C 82.230469 221.175781 81.5625 220.816406 80.925781 220.394531 C 80.289062 219.96875 79.703125 219.488281 79.164062 218.945312 C 78.621094 218.40625 78.140625 217.816406 77.714844 217.183594 C 77.289062 216.546875 76.933594 215.878906 76.640625 215.171875 C 76.347656 214.464844 76.128906 213.738281 75.976562 212.988281 C 75.828125 212.238281 75.753906 211.484375 75.753906 210.71875 C 75.753906 209.953125 75.828125 209.199219 75.976562 208.449219 C 76.128906 207.699219 76.347656 206.972656 76.640625 206.265625 C 76.933594 205.558594 77.289062 204.890625 77.714844 204.253906 C 78.140625 203.621094 78.621094 203.03125 79.164062 202.492188 C 79.703125 201.953125 80.289062 201.46875 80.925781 201.042969 C 81.5625 200.621094 82.230469 200.261719 82.9375 199.96875 C 83.644531 199.675781 84.371094 199.457031 85.121094 199.308594 C 85.867188 199.15625 86.625 199.082031 87.390625 199.082031 C 88.152344 199.082031 88.910156 199.15625 89.660156 199.308594 C 90.410156 199.457031 91.136719 199.675781 91.84375 199.96875 C 92.546875 200.261719 93.21875 200.621094 93.855469 201.042969 C 94.488281 201.46875 95.078125 201.953125 95.617188 202.492188 C 96.15625 203.03125 96.640625 203.621094 97.0625 204.253906 C 97.488281 204.890625 97.847656 205.558594 98.140625 206.265625 C 98.433594 206.972656 98.652344 207.699219 98.800781 208.449219 C 98.949219 209.199219 99.023438 209.953125 99.023438 210.71875 Z M 99.023438 210.71875 "/><path style=" stroke:none;fill-rule:nonzero;fill:#8c52ff;fill-opacity:1;" d="M 256.101562 216.535156 L 128.113281 216.535156 C 124.621094 216.535156 122.296875 214.210938 122.296875 210.71875 C 122.296875 207.226562 124.621094 204.902344 128.113281 204.902344 L 256.101562 204.902344 C 259.59375 204.902344 261.917969 207.226562 261.917969 210.71875 C 261.917969 214.210938 259.59375 216.535156 256.101562 216.535156 Z M 256.101562 216.535156 "/><path style=" stroke:none;fill-rule:nonzero;fill:#8c52ff;fill-opacity:1;" d="M 99.023438 257.261719 C 99.023438 258.023438 98.949219 258.78125 98.800781 259.53125 C 98.652344 260.277344 98.433594 261.007812 98.140625 261.710938 C 97.847656 262.417969 97.488281 263.089844 97.0625 263.722656 C 96.640625 264.359375 96.15625 264.945312 95.617188 265.488281 C 95.078125 266.027344 94.488281 266.511719 93.855469 266.933594 C 93.21875 267.359375 92.546875 267.71875 91.84375 268.007812 C 91.136719 268.300781 90.410156 268.523438 89.660156 268.671875 C 88.910156 268.820312 88.152344 268.894531 87.390625 268.894531 C 86.625 268.894531 85.867188 268.820312 85.121094 268.671875 C 84.371094 268.523438 83.644531 268.300781 82.9375 268.007812 C 82.230469 267.71875 81.5625 267.359375 80.925781 266.933594 C 80.289062 266.511719 79.703125 266.027344 79.164062 265.488281 C 78.621094 264.945312 78.140625 264.359375 77.714844 263.722656 C 77.289062 263.089844 76.933594 262.417969 76.640625 261.710938 C 76.347656 261.007812 76.128906 260.277344 75.976562 259.53125 C 75.828125 258.78125 75.753906 258.023438 75.753906 257.261719 C 75.753906 256.496094 75.828125 255.738281 75.976562 254.988281 C 76.128906 254.242188 76.347656 253.511719 76.640625 252.808594 C 76.933594 252.101562 77.289062 251.429688 77.714844 250.796875 C 78.140625 250.160156 78.621094 249.574219 79.164062 249.03125 C 79.703125 248.492188 80.289062 248.011719 80.925781 247.585938 C 81.5625 247.160156 82.230469 246.800781 82.9375 246.511719 C 83.644531 246.21875 84.371094 245.996094 85.121094 245.847656 C 85.867188 245.699219 86.625 245.625 87.390625 245.625 C 88.152344 245.625 88.910156 245.699219 89.660156 245.847656 C 90.410156 245.996094 91.136719 246.21875 91.84375 246.511719 C 92.546875 246.800781 93.21875 247.160156 93.855469 247.585938 C 94.488281 248.011719 95.078125 248.492188 95.617188 249.03125 C 96.15625 249.574219 96.640625 250.160156 97.0625 250.796875 C 97.488281 251.429688 97.847656 252.101562 98.140625 252.808594 C 98.433594 253.511719 98.652344 254.242188 98.800781 254.988281 C 98.949219 255.738281 99.023438 256.496094 99.023438 257.261719 Z M 99.023438 257.261719 "/><path style=" stroke:none;fill-rule:nonzero;fill:#8c52ff;fill-opacity:1;" d="M 227.011719 263.078125 L 128.113281 263.078125 C 124.621094 263.078125 122.296875 260.75 122.296875 257.261719 C 122.296875 253.769531 124.621094 251.441406 128.113281 251.441406 L 227.011719 251.441406 C 230.503906 251.441406 232.832031 253.769531 232.832031 257.261719 C 232.832031 260.75 230.503906 263.078125 227.011719 263.078125 Z M 227.011719 263.078125 "/><path style=" stroke:none;fill-rule:nonzero;fill:#8c52ff;fill-opacity:1;" d="M 99.023438 303.800781 C 99.023438 304.566406 98.949219 305.320312 98.800781 306.070312 C 98.652344 306.820312 98.433594 307.546875 98.140625 308.253906 C 97.847656 308.960938 97.488281 309.628906 97.0625 310.265625 C 96.640625 310.898438 96.15625 311.488281 95.617188 312.027344 C 95.078125 312.570312 94.488281 313.050781 93.855469 313.476562 C 93.21875 313.898438 92.546875 314.257812 91.84375 314.550781 C 91.136719 314.84375 90.410156 315.0625 89.660156 315.210938 C 88.910156 315.363281 88.152344 315.4375 87.390625 315.4375 C 86.625 315.4375 85.867188 315.363281 85.121094 315.210938 C 84.371094 315.0625 83.644531 314.84375 82.9375 314.550781 C 82.230469 314.257812 81.5625 313.898438 80.925781 313.476562 C 80.289062 313.050781 79.703125 312.570312 79.164062 312.027344 C 78.621094 311.488281 78.140625 310.902344 77.714844 310.265625 C 77.289062 309.628906 76.933594 308.960938 76.640625 308.253906 C 76.347656 307.546875 76.128906 306.820312 75.976562 306.070312 C 75.828125 305.320312 75.753906 304.566406 75.753906 303.800781 C 75.753906 303.035156 75.828125 302.28125 75.976562 301.53125 C 76.128906 300.78125 76.347656 300.054688 76.640625 299.347656 C 76.933594 298.640625 77.289062 297.972656 77.714844 297.335938 C 78.140625 296.703125 78.621094 296.113281 79.164062 295.574219 C 79.703125 295.035156 80.289062 294.550781 80.925781 294.125 C 81.5625 293.703125 82.230469 293.34375 82.9375 293.050781 C 83.644531 292.757812 84.371094 292.539062 85.121094 292.390625 C 85.867188 292.242188 86.625 292.164062 87.390625 292.164062 C 88.152344 292.164062 88.910156 292.242188 89.660156 292.390625 C 90.410156 292.539062 91.136719 292.757812 91.84375 293.050781 C 92.546875 293.34375 93.21875 293.703125 93.855469 294.125 C 94.488281 294.550781 95.078125 295.035156 95.617188 295.574219 C 96.15625 296.113281 96.640625 296.703125 97.0625 297.335938 C 97.488281 297.972656 97.847656 298.640625 98.140625 299.347656 C 98.433594 300.054688 98.652344 300.78125 98.800781 301.53125 C 98.949219 302.28125 99.023438 303.035156 99.023438 303.800781 Z M 99.023438 303.800781 "/><path style=" stroke:none;fill-rule:nonzero;fill:#8c52ff;fill-opacity:1;" d="M 227.011719 309.617188 L 128.113281 309.617188 C 124.621094 309.617188 122.296875 307.292969 122.296875 303.800781 C 122.296875 300.308594 124.621094 297.984375 128.113281 297.984375 L 227.011719 297.984375 C 230.503906 297.984375 232.832031 300.308594 232.832031 303.800781 C 232.832031 307.292969 230.503906 309.617188 227.011719 309.617188 Z M 227.011719 309.617188 "/><path style=" stroke:none;fill-rule:nonzero;fill:#8c52ff;fill-opacity:1;" d="M 260.171875 309.617188 C 259.011719 309.617188 258.429688 309.617188 257.265625 309.035156 C 255.519531 308.457031 254.9375 306.710938 254.355469 304.964844 L 248.539062 275.875 C 248.539062 274.710938 248.539062 273.550781 249.121094 272.386719 L 307.878906 149.050781 C 309.625 144.980469 313.695312 141.488281 317.769531 140.324219 C 322.421875 138.582031 327.078125 139.160156 331.148438 141.488281 L 345.109375 148.46875 C 353.835938 152.542969 357.328125 163.015625 353.253906 171.742188 L 294.496094 294.492188 C 293.914062 295.65625 292.753906 296.820312 291.589844 297.402344 L 262.5 309.035156 C 261.335938 309.617188 260.753906 309.617188 260.171875 309.617188 Z M 260.171875 275.292969 L 264.246094 295.65625 L 284.609375 287.511719 L 342.785156 166.503906 C 343.949219 163.597656 342.785156 160.105469 339.875 158.359375 L 325.914062 151.378906 C 324.75 150.796875 323.003906 150.796875 321.839844 150.796875 C 320.675781 151.378906 319.511719 152.542969 318.351562 153.707031 Z M 260.171875 275.292969 "/><path style=" stroke:none;fill-rule:nonzero;fill:#8c52ff;fill-opacity:1;" d="M 260.171875 309.617188 C 259.011719 309.617188 258.429688 309.617188 257.265625 309.035156 C 255.519531 308.457031 254.9375 306.710938 254.355469 304.964844 L 248.539062 275.875 C 248.539062 274.710938 248.539062 273.550781 249.121094 272.386719 L 257.847656 254.351562 C 258.429688 253.1875 259.59375 252.023438 261.335938 251.441406 C 263.082031 250.859375 264.246094 250.859375 265.992188 252.023438 L 300.898438 269.476562 C 303.804688 270.640625 304.96875 274.132812 303.804688 277.039062 L 295.078125 295.074219 C 294.496094 296.238281 293.335938 297.402344 292.171875 297.984375 L 263.082031 309.617188 C 261.335938 309.617188 260.753906 309.617188 260.171875 309.617188 Z M 260.171875 275.292969 L 264.246094 295.65625 L 284.609375 287.511719 L 289.84375 277.039062 L 265.410156 264.824219 Z M 260.171875 275.292969 "/><path style=" stroke:none;fill-rule:nonzero;fill:#8c52ff;fill-opacity:1;" d="M 339.292969 192.683594 C 338.128906 192.683594 337.546875 192.683594 336.964844 192.101562 L 302.058594 174.648438 C 299.152344 173.484375 297.988281 169.996094 299.152344 167.085938 L 307.878906 149.050781 C 309.625 144.980469 313.695312 141.488281 317.769531 140.324219 C 322.421875 138.582031 327.078125 139.160156 331.148438 141.488281 L 345.109375 148.46875 C 350.929688 151.378906 355 157.777344 355 164.757812 C 355 167.085938 354.417969 169.414062 353.253906 171.742188 L 344.53125 189.773438 C 343.949219 190.9375 342.785156 192.101562 341.039062 192.683594 C 340.457031 192.683594 339.875 192.683594 339.292969 192.683594 Z M 312.53125 166.503906 L 336.964844 178.722656 L 342.785156 165.921875 C 343.367188 165.339844 343.367188 164.757812 343.367188 164.175781 C 343.367188 161.851562 342.203125 159.523438 339.875 158.359375 L 325.914062 151.378906 C 324.75 150.796875 323.003906 150.796875 321.839844 150.796875 C 320.675781 151.378906 319.511719 152.542969 318.351562 153.707031 Z M 312.53125 166.503906 "/><g clip-rule="nonzero" clip-path="url(#37665a229d)"><path style=" stroke:none;fill-rule:nonzero;fill:#8c52ff;fill-opacity:1;" d="M 291.007812 373.613281 L 46.667969 373.613281 C 30.375 373.613281 17.578125 360.8125 17.578125 344.523438 L 17.578125 65.277344 C 17.578125 48.988281 30.375 36.191406 46.667969 36.191406 L 93.207031 36.191406 C 96.699219 36.191406 99.023438 38.515625 99.023438 42.007812 L 99.023438 71.09375 L 238.648438 71.09375 L 238.648438 42.007812 C 238.648438 38.515625 240.976562 36.191406 244.464844 36.191406 L 291.007812 36.191406 C 307.296875 36.191406 320.09375 48.988281 320.09375 65.277344 L 320.09375 123.453125 C 320.09375 126.945312 317.769531 129.273438 314.277344 129.273438 C 310.785156 129.273438 308.460938 126.945312 308.460938 123.453125 L 308.460938 65.277344 C 308.460938 55.386719 300.898438 47.824219 291.007812 47.824219 L 250.285156 47.824219 L 250.285156 76.914062 C 250.285156 80.402344 247.957031 82.730469 244.464844 82.730469 L 93.207031 82.730469 C 89.71875 82.730469 87.390625 80.402344 87.390625 76.914062 L 87.390625 47.824219 L 46.667969 47.824219 C 36.777344 47.824219 29.214844 55.386719 29.214844 65.277344 L 29.214844 344.523438 C 29.214844 354.414062 36.777344 361.976562 46.667969 361.976562 L 291.007812 361.976562 C 300.898438 361.976562 308.460938 354.414062 308.460938 344.523438 L 308.460938 292.164062 C 308.460938 288.675781 310.785156 286.347656 314.277344 286.347656 C 317.769531 286.347656 320.09375 288.675781 320.09375 292.164062 L 320.09375 344.523438 C 320.09375 360.8125 307.296875 373.613281 291.007812 373.613281 Z M 291.007812 373.613281 "/></g><path style=" stroke:none;fill-rule:nonzero;fill:#8c52ff;fill-opacity:1;" d="M 180.472656 36.191406 C 180.472656 36.953125 180.398438 37.710938 180.25 38.460938 C 180.097656 39.207031 179.878906 39.9375 179.585938 40.640625 C 179.292969 41.347656 178.933594 42.019531 178.511719 42.652344 C 178.085938 43.289062 177.605469 43.875 177.0625 44.417969 C 176.523438 44.957031 175.9375 45.441406 175.300781 45.863281 C 174.664062 46.289062 173.996094 46.648438 173.289062 46.9375 C 172.582031 47.230469 171.855469 47.453125 171.105469 47.601562 C 170.355469 47.75 169.601562 47.824219 168.835938 47.824219 C 168.074219 47.824219 167.316406 47.75 166.566406 47.601562 C 165.816406 47.453125 165.089844 47.230469 164.382812 46.9375 C 163.679688 46.648438 163.007812 46.289062 162.371094 45.863281 C 161.738281 45.441406 161.148438 44.957031 160.609375 44.417969 C 160.070312 43.875 159.585938 43.289062 159.164062 42.652344 C 158.738281 42.019531 158.378906 41.347656 158.085938 40.640625 C 157.792969 39.9375 157.574219 39.207031 157.425781 38.460938 C 157.277344 37.710938 157.203125 36.953125 157.203125 36.191406 C 157.203125 35.425781 157.277344 34.667969 157.425781 33.917969 C 157.574219 33.171875 157.792969 32.441406 158.085938 31.738281 C 158.378906 31.03125 158.738281 30.359375 159.164062 29.726562 C 159.585938 29.089844 160.070312 28.503906 160.609375 27.960938 C 161.148438 27.421875 161.738281 26.941406 162.371094 26.515625 C 163.007812 26.089844 163.679688 25.734375 164.382812 25.441406 C 165.089844 25.148438 165.816406 24.925781 166.566406 24.777344 C 167.316406 24.628906 168.074219 24.554688 168.835938 24.554688 C 169.601562 24.554688 170.355469 24.628906 171.105469 24.777344 C 171.855469 24.925781 172.582031 25.148438 173.289062 25.441406 C 173.996094 25.734375 174.664062 26.089844 175.300781 26.515625 C 175.9375 26.941406 176.523438 27.421875 177.0625 27.960938 C 177.605469 28.503906 178.085938 29.089844 178.511719 29.726562 C 178.933594 30.359375 179.292969 31.03125 179.585938 31.738281 C 179.878906 32.441406 180.097656 33.171875 180.25 33.917969 C 180.398438 34.667969 180.472656 35.425781 180.472656 36.191406 Z M 180.472656 36.191406 "/><path style=" stroke:none;fill-rule:nonzero;fill:#8c52ff;fill-opacity:1;" d="M 244.464844 82.730469 L 93.207031 82.730469 C 89.71875 82.730469 87.390625 80.402344 87.390625 76.914062 L 87.390625 30.371094 C 87.390625 26.882812 89.71875 24.554688 93.207031 24.554688 L 135.09375 24.554688 C 139.75 10.59375 153.128906 1.285156 168.835938 1.285156 C 184.542969 1.285156 197.34375 10.59375 202.578125 24.554688 L 244.464844 24.554688 C 247.957031 24.554688 250.285156 26.882812 250.285156 30.371094 L 250.285156 76.914062 C 250.285156 80.402344 247.957031 82.730469 244.464844 82.730469 Z M 99.023438 71.09375 L 238.648438 71.09375 L 238.648438 36.191406 L 197.925781 36.191406 C 195.015625 36.191406 192.6875 34.445312 192.105469 31.535156 C 189.78125 21.0625 179.890625 12.917969 168.835938 12.917969 C 157.78125 12.917969 147.894531 21.0625 145.566406 31.535156 C 144.984375 34.445312 142.65625 36.191406 139.75 36.191406 L 99.023438 36.191406 Z M 99.023438 71.09375 "/><path style=" stroke:none;fill-rule:nonzero;fill:#8c52ff;fill-opacity:1;" d="M 279.371094 350.34375 L 58.300781 350.34375 C 48.410156 350.34375 40.847656 342.777344 40.847656 332.890625 L 40.847656 76.914062 C 40.847656 67.023438 48.410156 59.460938 58.300781 59.460938 L 93.207031 59.460938 C 96.699219 59.460938 99.023438 61.789062 99.023438 65.277344 L 99.023438 71.09375 L 238.648438 71.09375 L 238.648438 65.277344 C 238.648438 61.789062 240.976562 59.460938 244.464844 59.460938 L 279.371094 59.460938 C 289.261719 59.460938 296.824219 67.023438 296.824219 76.914062 L 296.824219 146.726562 C 296.824219 150.214844 294.496094 152.542969 291.007812 152.542969 C 287.515625 152.542969 285.1875 150.214844 285.1875 146.726562 L 285.1875 76.914062 C 285.1875 73.421875 282.863281 71.09375 279.371094 71.09375 L 250.285156 71.09375 L 250.285156 76.914062 C 250.285156 80.402344 247.957031 82.730469 244.464844 82.730469 L 93.207031 82.730469 C 89.71875 82.730469 87.390625 80.402344 87.390625 76.914062 L 87.390625 71.09375 L 58.300781 71.09375 C 54.8125 71.09375 52.484375 73.421875 52.484375 76.914062 L 52.484375 332.890625 C 52.484375 336.378906 54.8125 338.707031 58.300781 338.707031 L 279.371094 338.707031 C 282.863281 338.707031 285.1875 336.378906 285.1875 332.890625 L 285.1875 315.4375 C 285.1875 311.945312 287.515625 309.617188 291.007812 309.617188 C 294.496094 309.617188 296.824219 311.945312 296.824219 315.4375 L 296.824219 332.890625 C 296.824219 342.777344 289.261719 350.34375 279.371094 350.34375 Z M 279.371094 350.34375 "/><g style="fill:#ffffff;fill-opacity:1;"><g transform="translate(165.643894, 94.84791)"><path style="stroke:none" d="M 1.25 -1.53125 C 1.25 -2.132812 1.410156 -2.585938 1.734375 -2.890625 C 2.054688 -3.203125 2.523438 -3.359375 3.140625 -3.359375 C 3.742188 -3.359375 4.207031 -3.203125 4.53125 -2.890625 C 4.851562 -2.578125 5.015625 -2.125 5.015625 -1.53125 C 5.015625 -0.96875 4.847656 -0.519531 4.515625 -0.1875 C 4.191406 0.132812 3.734375 0.296875 3.140625 0.296875 C 2.546875 0.296875 2.082031 0.132812 1.75 -0.1875 C 1.414062 -0.507812 1.25 -0.957031 1.25 -1.53125 Z M 1.25 -1.53125 "/></g></g></g></svg>